solid stl_item0
  facet normal -1 0 0
    outer loop
      vertex -8.5 0.418 5.853
      vertex -8.5 1.5 6
      vertex -8.5 0.418 0.147
    endloop
  endfacet
  facet normal -1 0 0
    outer loop
      vertex -8.5 1.5 0
      vertex -8.5 0.418 0.147
      vertex -8.5 1.5 6
    endloop
  endfacet
  facet normal -1 0 0
    outer loop
      vertex -8.5 2.582 5.853
      vertex -8.5 2.582 0.147
      vertex -8.5 1.5 6
    endloop
  endfacet
  facet normal -1 0 0
    outer loop
      vertex -8.5 3.557 5.427
      vertex -8.5 2.582 0.147
      vertex -8.5 2.582 5.853
    endloop
  endfacet
  facet normal -1 0 0
    outer loop
      vertex -8.5 4.332 4.763
      vertex -8.5 3.557 0.573
      vertex -8.5 3.557 5.427
    endloop
  endfacet
  facet normal -1 0 0
    outer loop
      vertex -8.5 4.829 3.927
      vertex -8.5 4.332 1.237
      vertex -8.5 4.332 4.763
    endloop
  endfacet
  facet normal -1 0 0
    outer loop
      vertex -8.5 5 3
      vertex -8.5 4.829 2.073
      vertex -8.5 4.829 3.927
    endloop
  endfacet
  facet normal -1 0 0
    outer loop
      vertex -8.5 4.332 1.237
      vertex -8.5 4.829 3.927
      vertex -8.5 4.829 2.073
    endloop
  endfacet
  facet normal -1 0 0
    outer loop
      vertex -8.5 3.557 0.573
      vertex -8.5 4.332 4.763
      vertex -8.5 4.332 1.237
    endloop
  endfacet
  facet normal -1 0 0
    outer loop
      vertex -8.5 2.582 0.147
      vertex -8.5 3.557 5.427
      vertex -8.5 3.557 0.573
    endloop
  endfacet
  facet normal -1 0 0
    outer loop
      vertex -8.5 1.5 0
      vertex -8.5 1.5 6
      vertex -8.5 2.582 0.147
    endloop
  endfacet
  facet normal -1 0 0
    outer loop
      vertex -8.5 -0.557 0.573
      vertex -8.5 -1.332 1.237
      vertex -8.5 -1.332 4.763
    endloop
  endfacet
  facet normal -1 0 0
    outer loop
      vertex -8.5 -1.332 4.763
      vertex -8.5 -0.557 5.427
      vertex -8.5 -0.557 0.573
    endloop
  endfacet
  facet normal -1 0 0
    outer loop
      vertex -8.5 0.418 0.147
      vertex -8.5 -0.557 0.573
      vertex -8.5 -0.557 5.427
    endloop
  endfacet
  facet normal -1 0 0
    outer loop
      vertex -8.5 0.418 5.853
      vertex -8.5 0.418 0.147
      vertex -8.5 -0.557 5.427
    endloop
  endfacet
  facet normal -1 0 0
    outer loop
      vertex -8.5 -1.829 3.927
      vertex -8.5 -1.332 4.763
      vertex -8.5 -1.332 1.237
    endloop
  endfacet
  facet normal -1 0 0
    outer loop
      vertex -8.5 -1.332 1.237
      vertex -8.5 -1.829 2.073
      vertex -8.5 -1.829 3.927
    endloop
  endfacet
  facet normal -1 0 0
    outer loop
      vertex -8.5 -2 3
      vertex -8.5 -1.829 3.927
      vertex -8.5 -1.829 2.073
    endloop
  endfacet
  facet normal 1 0 0
    outer loop
      vertex 8.5 5 3
      vertex 8.5 4.829 3.927
      vertex 8.5 4.829 2.073
    endloop
  endfacet
  facet normal 1 0 0
    outer loop
      vertex 8.5 4.332 1.237
      vertex 8.5 4.829 2.073
      vertex 8.5 4.829 3.927
    endloop
  endfacet
  facet normal 1 0 0
    outer loop
      vertex 8.5 4.829 3.927
      vertex 8.5 4.332 4.763
      vertex 8.5 4.332 1.237
    endloop
  endfacet
  facet normal 1 0 0
    outer loop
      vertex 8.5 3.557 0.573
      vertex 8.5 4.332 1.237
      vertex 8.5 4.332 4.763
    endloop
  endfacet
  facet normal 1 0 0
    outer loop
      vertex 8.5 4.332 4.763
      vertex 8.5 3.557 5.427
      vertex 8.5 3.557 0.573
    endloop
  endfacet
  facet normal 1 0 0
    outer loop
      vertex 8.5 2.582 0.147
      vertex 8.5 3.557 0.573
      vertex 8.5 3.557 5.427
    endloop
  endfacet
  facet normal 1 0 0
    outer loop
      vertex 8.5 3.557 5.427
      vertex 8.5 2.582 5.853
      vertex 8.5 2.582 0.147
    endloop
  endfacet
  facet normal 1 0 0
    outer loop
      vertex 8.5 2.582 5.853
      vertex 8.5 1.5 6
      vertex 8.5 2.582 0.147
    endloop
  endfacet
  facet normal 1 0 0
    outer loop
      vertex 8.5 1.5 0
      vertex 8.5 2.582 0.147
      vertex 8.5 1.5 6
    endloop
  endfacet
  facet normal 1 0 0
    outer loop
      vertex 8.5 0.418 0.147
      vertex 8.5 1.5 0
      vertex 8.5 1.5 6
    endloop
  endfacet
  facet normal 1 0 0
    outer loop
      vertex 8.5 0.418 0.147
      vertex 8.5 1.5 6
      vertex 8.5 0.418 5.853
    endloop
  endfacet
  facet normal 1 0 0
    outer loop
      vertex 8.5 0.418 0.147
      vertex 8.5 0.418 5.853
      vertex 8.5 -0.557 5.427
    endloop
  endfacet
  facet normal 1 0 0
    outer loop
      vertex 8.5 -1.332 1.237
      vertex 8.5 -0.557 0.573
      vertex 8.5 -1.332 4.763
    endloop
  endfacet
  facet normal 1 0 0
    outer loop
      vertex 8.5 -0.557 5.427
      vertex 8.5 -1.332 4.763
      vertex 8.5 -0.557 0.573
    endloop
  endfacet
  facet normal 1 0 0
    outer loop
      vertex 8.5 0.418 0.147
      vertex 8.5 -0.557 5.427
      vertex 8.5 -0.557 0.573
    endloop
  endfacet
  facet normal 1 0 0
    outer loop
      vertex 8.5 -1.829 2.073
      vertex 8.5 -1.332 1.237
      vertex 8.5 -1.332 4.763
    endloop
  endfacet
  facet normal 1 0 0
    outer loop
      vertex 8.5 -1.332 4.763
      vertex 8.5 -1.829 3.927
      vertex 8.5 -1.829 2.073
    endloop
  endfacet
  facet normal 1 0 0
    outer loop
      vertex 8.5 -2 3
      vertex 8.5 -1.829 2.073
      vertex 8.5 -1.829 3.927
    endloop
  endfacet
  facet normal 0 -0.85957 -0.51101
    outer loop
      vertex -8.5 -1.829 2.073
      vertex 8.5 -1.332 1.237
      vertex 8.5 -1.829 2.073
    endloop
  endfacet
  facet normal 0 -0.98341 -0.18141
    outer loop
      vertex -8.5 -1.829 2.073
      vertex 8.5 -1.829 2.073
      vertex 8.5 -2 3
    endloop
  endfacet
  facet normal 0 -0.13462 -0.9909
    outer loop
      vertex -8.5 1.5 0
      vertex 8.5 1.5 0
      vertex -8.5 0.418 0.147
    endloop
  endfacet
  facet normal 0 -0.13462 0.9909
    outer loop
      vertex -8.5 1.5 6
      vertex -8.5 0.418 5.853
      vertex 8.5 1.5 6
    endloop
  endfacet
  facet normal 0 0.13462 0.9909
    outer loop
      vertex 8.5 1.5 6
      vertex 8.5 2.582 5.853
      vertex -8.5 1.5 6
    endloop
  endfacet
  facet normal 0 0.40038 0.91635
    outer loop
      vertex -8.5 3.557 5.427
      vertex -8.5 2.582 5.853
      vertex 8.5 3.557 5.427
    endloop
  endfacet
  facet normal 0 0.85957 -0.51101
    outer loop
      vertex -8.5 4.332 1.237
      vertex 8.5 4.829 2.073
      vertex 8.5 4.332 1.237
    endloop
  endfacet
  facet normal 0 0.65063 0.75939
    outer loop
      vertex 8.5 4.332 4.763
      vertex -8.5 4.332 4.763
      vertex 8.5 3.557 5.427
    endloop
  endfacet
  facet normal 0 -0.40038 0.91635
    outer loop
      vertex 8.5 0.418 5.853
      vertex -8.5 0.418 5.853
      vertex -8.5 -0.557 5.427
    endloop
  endfacet
  facet normal 0 0.65063 -0.75939
    outer loop
      vertex -8.5 4.332 1.237
      vertex 8.5 4.332 1.237
      vertex 8.5 3.557 0.573
    endloop
  endfacet
  facet normal 0 -0.85957 0.51101
    outer loop
      vertex 8.5 -1.332 4.763
      vertex -8.5 -1.332 4.763
      vertex -8.5 -1.829 3.927
    endloop
  endfacet
  facet normal 0 -0.13462 0.9909
    outer loop
      vertex 8.5 0.418 5.853
      vertex 8.5 1.5 6
      vertex -8.5 0.418 5.853
    endloop
  endfacet
  facet normal 0 0.85957 0.51101
    outer loop
      vertex 8.5 4.829 3.927
      vertex -8.5 4.829 3.927
      vertex 8.5 4.332 4.763
    endloop
  endfacet
  facet normal 0 -0.65063 0.75939
    outer loop
      vertex 8.5 -1.332 4.763
      vertex 8.5 -0.557 5.427
      vertex -8.5 -1.332 4.763
    endloop
  endfacet
  facet normal 0 0.13462 0.9909
    outer loop
      vertex 8.5 2.582 5.853
      vertex -8.5 2.582 5.853
      vertex -8.5 1.5 6
    endloop
  endfacet
  facet normal 0 0.13462 -0.9909
    outer loop
      vertex -8.5 1.5 0
      vertex 8.5 2.582 0.147
      vertex 8.5 1.5 0
    endloop
  endfacet
  facet normal 0 0.98341 0.18141
    outer loop
      vertex 8.5 5 3
      vertex -8.5 4.829 3.927
      vertex 8.5 4.829 3.927
    endloop
  endfacet
  facet normal 0 -0.65063 -0.75939
    outer loop
      vertex -8.5 -0.557 0.573
      vertex 8.5 -0.557 0.573
      vertex 8.5 -1.332 1.237
    endloop
  endfacet
  facet normal 0 0.65063 0.75939
    outer loop
      vertex -8.5 3.557 5.427
      vertex 8.5 3.557 5.427
      vertex -8.5 4.332 4.763
    endloop
  endfacet
  facet normal 0 -0.13462 -0.9909
    outer loop
      vertex 8.5 0.418 0.147
      vertex -8.5 0.418 0.147
      vertex 8.5 1.5 0
    endloop
  endfacet
  facet normal 0 0.98341 -0.18141
    outer loop
      vertex 8.5 4.829 2.073
      vertex -8.5 4.829 2.073
      vertex 8.5 5 3
    endloop
  endfacet
  facet normal 0 -0.65063 -0.75939
    outer loop
      vertex -8.5 -1.332 1.237
      vertex -8.5 -0.557 0.573
      vertex 8.5 -1.332 1.237
    endloop
  endfacet
  facet normal 0 0.40038 0.91635
    outer loop
      vertex 8.5 2.582 5.853
      vertex 8.5 3.557 5.427
      vertex -8.5 2.582 5.853
    endloop
  endfacet
  facet normal 0 -0.98341 -0.18141
    outer loop
      vertex 8.5 -2 3
      vertex -8.5 -2 3
      vertex -8.5 -1.829 2.073
    endloop
  endfacet
  facet normal 0 0.85957 -0.51101
    outer loop
      vertex 8.5 4.829 2.073
      vertex -8.5 4.332 1.237
      vertex -8.5 4.829 2.073
    endloop
  endfacet
  facet normal 0 -0.85957 -0.51101
    outer loop
      vertex -8.5 -1.829 2.073
      vertex -8.5 -1.332 1.237
      vertex 8.5 -1.332 1.237
    endloop
  endfacet
  facet normal 0 0.85957 0.51101
    outer loop
      vertex 8.5 4.332 4.763
      vertex -8.5 4.829 3.927
      vertex -8.5 4.332 4.763
    endloop
  endfacet
  facet normal 0 0.98341 0.18141
    outer loop
      vertex 8.5 5 3
      vertex -8.5 5 3
      vertex -8.5 4.829 3.927
    endloop
  endfacet
  facet normal 0 0.65063 -0.75939
    outer loop
      vertex -8.5 4.332 1.237
      vertex 8.5 3.557 0.573
      vertex -8.5 3.557 0.573
    endloop
  endfacet
  facet normal 0 0.98341 -0.18141
    outer loop
      vertex 8.5 5 3
      vertex -8.5 4.829 2.073
      vertex -8.5 5 3
    endloop
  endfacet
  facet normal 0 0.40038 -0.91635
    outer loop
      vertex 8.5 2.582 0.147
      vertex -8.5 2.582 0.147
      vertex 8.5 3.557 0.573
    endloop
  endfacet
  facet normal 0 0.40038 -0.91635
    outer loop
      vertex -8.5 3.557 0.573
      vertex 8.5 3.557 0.573
      vertex -8.5 2.582 0.147
    endloop
  endfacet
  facet normal 0 0.13462 -0.9909
    outer loop
      vertex 8.5 2.582 0.147
      vertex -8.5 1.5 0
      vertex -8.5 2.582 0.147
    endloop
  endfacet
  facet normal 0 -0.40038 -0.91635
    outer loop
      vertex 8.5 -0.557 0.573
      vertex -8.5 -0.557 0.573
      vertex -8.5 0.418 0.147
    endloop
  endfacet
  facet normal 0 -0.40038 -0.91635
    outer loop
      vertex 8.5 -0.557 0.573
      vertex -8.5 0.418 0.147
      vertex 8.5 0.418 0.147
    endloop
  endfacet
  facet normal 0 -0.98341 0.18141
    outer loop
      vertex -8.5 -2 3
      vertex 8.5 -2 3
      vertex -8.5 -1.829 3.927
    endloop
  endfacet
  facet normal 0 -0.98341 0.18141
    outer loop
      vertex 8.5 -1.829 3.927
      vertex -8.5 -1.829 3.927
      vertex 8.5 -2 3
    endloop
  endfacet
  facet normal 0 -0.85957 0.51101
    outer loop
      vertex 8.5 -1.332 4.763
      vertex -8.5 -1.829 3.927
      vertex 8.5 -1.829 3.927
    endloop
  endfacet
  facet normal 0 -0.65063 0.75939
    outer loop
      vertex -8.5 -0.557 5.427
      vertex -8.5 -1.332 4.763
      vertex 8.5 -0.557 5.427
    endloop
  endfacet
  facet normal 0 -0.40038 0.91635
    outer loop
      vertex -8.5 -0.557 5.427
      vertex 8.5 -0.557 5.427
      vertex 8.5 0.418 5.853
    endloop
  endfacet
endsolid stl_item0
